<?xml version="1.0" encoding="UTF-8" standalone="no"?>
<!-- Created with Inkscape (http://www.inkscape.org/) -->

<svg
   width="135.46629mm"
   height="148.60847mm"
   viewBox="0 0 135.46629 148.60847"
   version="1.1"
   id="svg5"
   xml:space="preserve"
   inkscape:version="1.3.2 (091e20e, 2023-11-25, custom)"
   sodipodi:docname="ZZLogo - Copy.svg"
   inkscape:export-filename="ZZLogo - Copy.png"
   inkscape:export-xdpi="96"
   inkscape:export-ydpi="96"
   xmlns:inkscape="http://www.inkscape.org/namespaces/inkscape"
   xmlns:sodipodi="http://sodipodi.sourceforge.net/DTD/sodipodi-0.dtd"
   xmlns="http://www.w3.org/2000/svg"
   xmlns:svg="http://www.w3.org/2000/svg"><sodipodi:namedview
     id="namedview7"
     pagecolor="#ffffff"
     bordercolor="#666666"
     borderopacity="1.0"
     inkscape:showpageshadow="2"
     inkscape:pageopacity="0.0"
     inkscape:pagecheckerboard="0"
     inkscape:deskcolor="#d1d1d1"
     inkscape:document-units="mm"
     showgrid="false"
     inkscape:zoom="0.35355339"
     inkscape:cx="22.627417"
     inkscape:cy="117.37973"
     inkscape:window-width="1920"
     inkscape:window-height="1009"
     inkscape:window-x="1912"
     inkscape:window-y="-8"
     inkscape:window-maximized="1"
     inkscape:current-layer="layer1" /><defs
     id="defs2" /><g
     inkscape:label="Layer 1"
     inkscape:groupmode="layer"
     id="layer1"
     transform="translate(-30.749842,-71.283176)"><g
       id="g3002"
       transform="matrix(0.82080664,0,0,0.82080664,21.678194,53.720269)"><g
         id="g1917"
         style="fill:none;fill-opacity:0;stroke:#00a23f;stroke-opacity:1"><path
           style="display:inline;fill:none;fill-opacity:0;stroke:#00a23f;stroke-width:1.7;stroke-linecap:round;stroke-linejoin:round;stroke-dasharray:none;stroke-opacity:1"
           d="M 48.498236,152.16878 C 37.807499,141.09723 37.955758,123.32116 47.60836,99.666101 c -1.169596,9.827219 0.278985,15.496159 6.229133,14.015549 0.465135,-3.58552 -1.586124,-4.76904 1.779751,-11.12345 0.590655,1.90815 2.634158,2.50874 4.671849,3.11456 1.059662,-5.39721 1.290274,-12.852081 3.670736,-16.796406 0.398256,2.131064 1.270349,3.393425 2.558394,3.893208 3.38741,-2.04853 3.458549,-6.41845 4.004442,-10.456042 11.238018,-19.036627 27.655998,-34.550881 29.365906,-60.066623 7.487269,15.010127 5.863659,27.350517 -1.724136,40.266885"
           id="path1022"
           sodipodi:nodetypes="cccccccccc" /><path
           style="display:inline;fill:none;fill-opacity:0;stroke:#00a23f;stroke-width:1.7;stroke-linecap:round;stroke-linejoin:round;stroke-dasharray:none;stroke-opacity:1"
           d="m 119.46584,65.405878 c 9.60717,-0.112718 17.59587,7.739793 20.74822,15.955881 -4.1672,-3.051007 -10.44078,-7.986734 -15.76503,-8.916488 9.24535,6.532168 14.05746,10.501566 15.59519,20.991697 -4.00444,-3.69336 -8.20778,-9.092531 -12.21222,-8.411962 4.50686,4.313423 10.24738,11.386138 11.21111,18.200594 -2.20777,-1.79421 -6.24381,-5.634137 -8.63812,-4.816696 2.68453,3.394546 7.34954,6.897456 8.19318,14.382866 -1.1336,-0.65695 -4.70698,-2.3232 -4.33873,0.21129 l 2.33651,19.36598 -43.074061,58.50934 -17.993672,-23.91541 9.143525,-15.86737 c 3.775579,8.86363 13.230922,5.76382 16.137188,4.19569 -3.83893,-0.16392 -12.811981,-1.7044 -14.288803,-8.36439 l 4.293425,-12.3241 c 5.523976,7.08823 12.085478,3.89074 18.201808,0.46402 -6.14352,0.78128 -11.930783,1.50865 -17.461336,-5.99452 l 0.786548,-11.24762 c 5.272552,-1.80442 22.063578,-12.98172 7.680098,-25.16949"
           id="path1024"
           sodipodi:nodetypes="cccccccccccccccccccc" /><path
           style="display:inline;fill:none;fill-opacity:0;stroke:#00a23f;stroke-width:1.7;stroke-linecap:round;stroke-linejoin:round;stroke-dasharray:none;stroke-opacity:1"
           d="m 48.529925,152.0727 c 0.363595,-17.54956 13.113581,-23.5619 25.877383,-32.67492 l -4.994569,-0.4326 c 12.934413,-4.44601 14.888771,-5.8099 16.084878,-6.96094 l -6.174391,-0.47193 c 15.085062,-6.19008 16.801118,-8.53428 16.79277,-10.38242"
           id="path1026"
           sodipodi:nodetypes="cccccc" /><path
           style="display:inline;fill:none;fill-opacity:0;stroke:#00a23f;stroke-width:1.7;stroke-linecap:round;stroke-linejoin:round;stroke-dasharray:none;stroke-opacity:1"
           d="m 87.7786,69.766683 c 15.38731,-13.806941 25.54222,-5.000473 38.69809,-42.237552 1.67442,16.552735 -0.12285,30.045747 -14.94438,50.810911"
           id="path1754"
           sodipodi:nodetypes="ccc" /><path
           style="display:inline;fill:none;fill-opacity:0;stroke:#00a23f;stroke-width:1.7;stroke-linecap:round;stroke-linejoin:round;stroke-dasharray:none;stroke-opacity:1"
           d="m 48.161698,121.46623 c 0.934071,1.53525 -0.358158,5.39478 -0.611792,7.45791 1.130831,-3.609 3.38625,-6.25406 6.593128,-8.08359"
           id="path1852"
           sodipodi:nodetypes="ccc" /><path
           style="display:inline;fill:none;fill-opacity:0;stroke:#00a23f;stroke-width:1.7;stroke-linecap:round;stroke-linejoin:round;stroke-dasharray:none;stroke-opacity:1"
           d="m 73.93538,99.576799 c 2.855332,-4.953941 5.110493,-9.325621 7.795711,-12.062483 2.42629,-2.472953 5.9572,-2.755836 9.351006,-3.511138 -1.525768,5.437666 -8.540907,10.552428 -17.146717,15.573621 z"
           id="path1854"
           sodipodi:nodetypes="cscc" /><path
           style="display:inline;fill:none;fill-opacity:0;stroke:#00a23f;stroke-width:1.7;stroke-linecap:round;stroke-linejoin:round;stroke-dasharray:none;stroke-opacity:1"
           d="m 92.426316,117.76079 c 0,0 -5.955,0.48207 -10.557733,2.8174 -4.602733,2.33533 -10.74014,10.07284 -15.795297,12.68073 -5.055157,2.60789 -13.023689,3.73281 -13.023689,3.73281"
           id="path1856"
           sodipodi:nodetypes="czzc" /></g><path
         style="fill:none;fill-opacity:0;stroke:#00a23f;stroke-width:1.7;stroke-linecap:round;stroke-linejoin:round;stroke-dasharray:none;stroke-opacity:1"
         d="M 93.521889,201.59887 C 77.944276,180.1877 69.214156,168.74365 53.63733,147.83259 l 2.361863,-6.91398 25.283651,34.02844"
         id="path1921"
         sodipodi:nodetypes="cccc" /><path
         style="fill:none;fill-opacity:0;stroke:#00a23f;stroke-width:1.7;stroke-linecap:round;stroke-linejoin:round;stroke-dasharray:none;stroke-opacity:1"
         d="M 132.59151,137.89089 167.51914,92.346099 138.98749,57.50823 127.832,57.373825 l 1.50545,-5.168843 13.44773,0.100525 32.4574,40.040599 -81.966264,109.252764"
         id="path1962"
         sodipodi:nodetypes="cccccccc" /><path
         style="fill:none;stroke:#00a23f;stroke-width:1.7;stroke-linecap:round;stroke-linejoin:round;stroke-dasharray:none;stroke-opacity:1"
         d="M 84.830382,52.285761 45.272436,52.3055 11.90209,92.346099 c 8.177084,11.129241 14.787781,19.752751 24.029512,32.535831 l 1.373349,-8.58969 -18.359059,-23.946141 29.218641,-34.837869 32.971482,-0.0058 3.694367,-5.216632 z"
         id="path1964"
         sodipodi:nodetypes="cccccccccc" /></g></g></svg>
